<svg xmlns="http://www.w3.org/2000/svg" height="24" viewBox="0 96 960 960" width="24"><path d="M504 631Zm20 385H420l20-12.5q20-12.5 43.5-28t43.5-28l20-12.5q81-6 149.5-49T805 771q-86-8-163-43.5T504 631q-61-61-97-138t-43-163q-77 43-120.5 118.5T200 612v12l-12 5.5q-12 5.5-26.5 11.5T135 652.5l-12 5.5q-2-11-2.5-23t-.5-23q0-146 93-257.5T450 216q-18 99 11 193.5T561 575q71 71 165.5 100T920 686q-26 144-138 237t-258 93Zm-284-80h180q25 0 42.5-17.5T480 876q0-25-17-42.5T422 816h-52l-20-48q-14-33-44-52.5T240 696q-50 0-85 34.5T120 816q0 50 35 85t85 35Zm0 80q-83 0-141.5-58.5T40 816q0-83 58.5-141.5T240 616q60 0 109.5 32.5T423 736q57 2 97 42.5t40 97.5q0 58-41 99t-99 41H240Z"/></svg>